<?xml version="1.0" encoding="utf-8" standalone="no"?>
<!DOCTYPE svg PUBLIC "-//W3C//DTD SVG 1.1//EN"
  "http://www.w3.org/Graphics/SVG/1.1/DTD/svg11.dtd">
<!-- Created with matplotlib (https://matplotlib.org/) -->
<svg height="288pt" version="1.1" viewBox="0 0 432 288" width="432pt" xmlns="http://www.w3.org/2000/svg" xmlns:xlink="http://www.w3.org/1999/xlink">
 <defs>
  <style type="text/css">
*{stroke-linecap:butt;stroke-linejoin:round;}
  </style>
 </defs>
 <g id="figure_1">
  <g id="patch_1">
   <path d="M 0 288 
L 432 288 
L 432 0 
L 0 0 
z
" style="fill:#ffffff;"/>
  </g>
  <g id="axes_1">
   <g id="patch_2">
    <path d="M 34.504646 272.305354 
L 429.165354 272.305354 
L 429.165354 17.474646 
L 34.504646 17.474646 
z
" style="fill:#ffffff;"/>
   </g>
   <g id="matplotlib.axis_1">
    <g id="xtick_1">
     <g id="line2d_1">
      <path clip-path="url(#p290d3ee452)" d="M 39.208504 272.305354 
L 39.208504 17.474646 
" style="fill:none;stroke:#000000;stroke-linecap:square;stroke-opacity:0.1;stroke-width:0.5;"/>
     </g>
     <g id="line2d_2">
      <defs>
       <path d="M 0 0 
L 0 -2.5 
" id="m3900edad2b" style="stroke:#000000;stroke-width:0.5;"/>
      </defs>
      <g>
       <use style="stroke:#000000;stroke-width:0.5;" x="39.208504" xlink:href="#m3900edad2b" y="272.305354"/>
      </g>
     </g>
     <g id="text_1">
      <!-- $\mathregular{2002-01-01}$ -->
      <defs>
       <path d="M 20.609375 9.421875 
L 46.578125 9.421875 
L 46.578125 0 
L 3.421875 0 
L 3.421875 0.6875 
L 7.515625 5.515625 
Q 17.140625 17.4375 22.828125 25.734375 
Q 28.515625 34.03125 30.25 38.28125 
Q 31.984375 42.53125 31.984375 46.6875 
Q 31.984375 52.4375 28.703125 55.921875 
Q 25.4375 59.421875 20.015625 59.421875 
Q 15.921875 59.421875 11.9375 57 
Q 7.953125 54.59375 4.78125 50.203125 
L 4.78125 62.59375 
Q 12.75 69.09375 21.1875 69.09375 
Q 30.125 69.09375 35.90625 63.125 
Q 41.703125 57.171875 41.703125 48 
Q 41.703125 43.890625 40.25 39.234375 
Q 38.8125 34.578125 35.15625 28.484375 
Q 31.5 22.40625 22.703125 11.921875 
z
" id="GillSans-50"/>
       <path d="M 25.390625 69.09375 
Q 34.765625 69.09375 40.890625 59.25 
Q 47.015625 49.421875 47.015625 34.28125 
Q 47.015625 18.75 40.890625 9.03125 
Q 34.765625 -0.6875 25 -0.6875 
Q 15.09375 -0.6875 9.078125 8.828125 
Q 3.078125 18.359375 3.078125 34.078125 
Q 3.078125 49.609375 9.28125 59.34375 
Q 15.484375 69.09375 25.390625 69.09375 
z
M 25.484375 59.8125 
L 25 59.8125 
Q 19.390625 59.8125 16.09375 52.90625 
Q 12.796875 46 12.796875 34.1875 
Q 12.796875 22.078125 16.015625 15.1875 
Q 19.234375 8.296875 24.90625 8.296875 
Q 30.5625 8.296875 33.828125 15.1875 
Q 37.109375 22.078125 37.109375 33.890625 
Q 37.109375 45.75 33.953125 52.78125 
Q 30.8125 59.8125 25.484375 59.8125 
z
" id="GillSans-48"/>
       <path d="M 6.78125 29.203125 
L 6.78125 35.59375 
L 59.90625 35.59375 
L 59.90625 29.203125 
z
" id="GillSans-8722"/>
       <path d="M 20.21875 68.21875 
L 29.984375 68.21875 
L 29.984375 0 
L 20.21875 0 
z
" id="GillSans-49"/>
      </defs>
      <g transform="translate(12.388504 281.945042)scale(0.09 -0.09)">
       <use transform="translate(0 0.90625)" xlink:href="#GillSans-50"/>
       <use transform="translate(50 0.90625)" xlink:href="#GillSans-48"/>
       <use transform="translate(100 0.90625)" xlink:href="#GillSans-48"/>
       <use transform="translate(150 0.90625)" xlink:href="#GillSans-50"/>
       <use transform="translate(215.419922 0.90625)" xlink:href="#GillSans-8722"/>
       <use transform="translate(297.539062 0.90625)" xlink:href="#GillSans-48"/>
       <use transform="translate(347.539062 0.90625)" xlink:href="#GillSans-49"/>
       <use transform="translate(412.958984 0.90625)" xlink:href="#GillSans-8722"/>
       <use transform="translate(495.078125 0.90625)" xlink:href="#GillSans-48"/>
       <use transform="translate(545.078125 0.90625)" xlink:href="#GillSans-49"/>
      </g>
     </g>
    </g>
    <g id="xtick_2">
     <g id="line2d_3">
      <path clip-path="url(#p290d3ee452)" d="M 137.596191 272.305354 
L 137.596191 17.474646 
" style="fill:none;stroke:#000000;stroke-linecap:square;stroke-opacity:0.1;stroke-width:0.5;"/>
     </g>
     <g id="line2d_4">
      <g>
       <use style="stroke:#000000;stroke-width:0.5;" x="137.596191" xlink:href="#m3900edad2b" y="272.305354"/>
      </g>
     </g>
     <g id="text_2">
      <!-- $\mathregular{2007-01-01}$ -->
      <defs>
       <path d="M 4.890625 68.21875 
L 49.03125 68.21875 
L 18.109375 -0.78125 
L 9.421875 2.875 
L 34.421875 58.890625 
L 4.890625 58.890625 
z
" id="GillSans-55"/>
      </defs>
      <g transform="translate(110.776191 281.945042)scale(0.09 -0.09)">
       <use transform="translate(0 0.90625)" xlink:href="#GillSans-50"/>
       <use transform="translate(50 0.90625)" xlink:href="#GillSans-48"/>
       <use transform="translate(100 0.90625)" xlink:href="#GillSans-48"/>
       <use transform="translate(150 0.90625)" xlink:href="#GillSans-55"/>
       <use transform="translate(215.419922 0.90625)" xlink:href="#GillSans-8722"/>
       <use transform="translate(297.539062 0.90625)" xlink:href="#GillSans-48"/>
       <use transform="translate(347.539062 0.90625)" xlink:href="#GillSans-49"/>
       <use transform="translate(412.958984 0.90625)" xlink:href="#GillSans-8722"/>
       <use transform="translate(495.078125 0.90625)" xlink:href="#GillSans-48"/>
       <use transform="translate(545.078125 0.90625)" xlink:href="#GillSans-49"/>
      </g>
     </g>
    </g>
    <g id="xtick_3">
     <g id="line2d_5">
      <path clip-path="url(#p290d3ee452)" d="M 235.983878 272.305354 
L 235.983878 17.474646 
" style="fill:none;stroke:#000000;stroke-linecap:square;stroke-opacity:0.1;stroke-width:0.5;"/>
     </g>
     <g id="line2d_6">
      <g>
       <use style="stroke:#000000;stroke-width:0.5;" x="235.983878" xlink:href="#m3900edad2b" y="272.305354"/>
      </g>
     </g>
     <g id="text_3">
      <!-- $\mathregular{2012-01-01}$ -->
      <g transform="translate(209.163878 281.945042)scale(0.09 -0.09)">
       <use transform="translate(0 0.90625)" xlink:href="#GillSans-50"/>
       <use transform="translate(50 0.90625)" xlink:href="#GillSans-48"/>
       <use transform="translate(100 0.90625)" xlink:href="#GillSans-49"/>
       <use transform="translate(150 0.90625)" xlink:href="#GillSans-50"/>
       <use transform="translate(215.419922 0.90625)" xlink:href="#GillSans-8722"/>
       <use transform="translate(297.539062 0.90625)" xlink:href="#GillSans-48"/>
       <use transform="translate(347.539062 0.90625)" xlink:href="#GillSans-49"/>
       <use transform="translate(412.958984 0.90625)" xlink:href="#GillSans-8722"/>
       <use transform="translate(495.078125 0.90625)" xlink:href="#GillSans-48"/>
       <use transform="translate(545.078125 0.90625)" xlink:href="#GillSans-49"/>
      </g>
     </g>
    </g>
    <g id="xtick_4">
     <g id="line2d_7">
      <path clip-path="url(#p290d3ee452)" d="M 334.425447 272.305354 
L 334.425447 17.474646 
" style="fill:none;stroke:#000000;stroke-linecap:square;stroke-opacity:0.1;stroke-width:0.5;"/>
     </g>
     <g id="line2d_8">
      <g>
       <use style="stroke:#000000;stroke-width:0.5;" x="334.425447" xlink:href="#m3900edad2b" y="272.305354"/>
      </g>
     </g>
     <g id="text_4">
      <!-- $\mathregular{2017-01-01}$ -->
      <g transform="translate(307.605447 281.945042)scale(0.09 -0.09)">
       <use transform="translate(0 0.90625)" xlink:href="#GillSans-50"/>
       <use transform="translate(50 0.90625)" xlink:href="#GillSans-48"/>
       <use transform="translate(100 0.90625)" xlink:href="#GillSans-49"/>
       <use transform="translate(150 0.90625)" xlink:href="#GillSans-55"/>
       <use transform="translate(215.419922 0.90625)" xlink:href="#GillSans-8722"/>
       <use transform="translate(297.539062 0.90625)" xlink:href="#GillSans-48"/>
       <use transform="translate(347.539062 0.90625)" xlink:href="#GillSans-49"/>
       <use transform="translate(412.958984 0.90625)" xlink:href="#GillSans-8722"/>
       <use transform="translate(495.078125 0.90625)" xlink:href="#GillSans-48"/>
       <use transform="translate(545.078125 0.90625)" xlink:href="#GillSans-49"/>
      </g>
     </g>
    </g>
   </g>
   <g id="matplotlib.axis_2">
    <g id="ytick_1">
     <g id="line2d_9">
      <path clip-path="url(#p290d3ee452)" d="M 34.504646 265.102074 
L 429.165354 265.102074 
" style="fill:none;stroke:#000000;stroke-linecap:square;stroke-opacity:0.1;stroke-width:0.5;"/>
     </g>
     <g id="line2d_10">
      <defs>
       <path d="M 0 0 
L 2.5 0 
" id="m943eb5929a" style="stroke:#000000;stroke-width:0.5;"/>
      </defs>
      <g>
       <use style="stroke:#000000;stroke-width:0.5;" x="34.504646" xlink:href="#m943eb5929a" y="265.102074"/>
      </g>
     </g>
     <g id="text_5">
      <!-- $\mathregular{0}$ -->
      <g transform="translate(26.504646 268.171918)scale(0.09 -0.09)">
       <use transform="translate(0 0.90625)" xlink:href="#GillSans-48"/>
      </g>
     </g>
    </g>
    <g id="ytick_2">
     <g id="line2d_11">
      <path clip-path="url(#p290d3ee452)" d="M 34.504646 196.565137 
L 429.165354 196.565137 
" style="fill:none;stroke:#000000;stroke-linecap:square;stroke-opacity:0.1;stroke-width:0.5;"/>
     </g>
     <g id="line2d_12">
      <g>
       <use style="stroke:#000000;stroke-width:0.5;" x="34.504646" xlink:href="#m943eb5929a" y="196.565137"/>
      </g>
     </g>
     <g id="text_6">
      <!-- $\mathregular{100000}$ -->
      <g transform="translate(4.004646 199.634981)scale(0.09 -0.09)">
       <use transform="translate(0 0.90625)" xlink:href="#GillSans-49"/>
       <use transform="translate(50 0.90625)" xlink:href="#GillSans-48"/>
       <use transform="translate(100 0.90625)" xlink:href="#GillSans-48"/>
       <use transform="translate(150 0.90625)" xlink:href="#GillSans-48"/>
       <use transform="translate(200 0.90625)" xlink:href="#GillSans-48"/>
       <use transform="translate(250 0.90625)" xlink:href="#GillSans-48"/>
      </g>
     </g>
    </g>
    <g id="ytick_3">
     <g id="line2d_13">
      <path clip-path="url(#p290d3ee452)" d="M 34.504646 128.0282 
L 429.165354 128.0282 
" style="fill:none;stroke:#000000;stroke-linecap:square;stroke-opacity:0.1;stroke-width:0.5;"/>
     </g>
     <g id="line2d_14">
      <g>
       <use style="stroke:#000000;stroke-width:0.5;" x="34.504646" xlink:href="#m943eb5929a" y="128.0282"/>
      </g>
     </g>
     <g id="text_7">
      <!-- $\mathregular{200000}$ -->
      <g transform="translate(4.004646 131.098044)scale(0.09 -0.09)">
       <use transform="translate(0 0.90625)" xlink:href="#GillSans-50"/>
       <use transform="translate(50 0.90625)" xlink:href="#GillSans-48"/>
       <use transform="translate(100 0.90625)" xlink:href="#GillSans-48"/>
       <use transform="translate(150 0.90625)" xlink:href="#GillSans-48"/>
       <use transform="translate(200 0.90625)" xlink:href="#GillSans-48"/>
       <use transform="translate(250 0.90625)" xlink:href="#GillSans-48"/>
      </g>
     </g>
    </g>
    <g id="ytick_4">
     <g id="line2d_15">
      <path clip-path="url(#p290d3ee452)" d="M 34.504646 59.491263 
L 429.165354 59.491263 
" style="fill:none;stroke:#000000;stroke-linecap:square;stroke-opacity:0.1;stroke-width:0.5;"/>
     </g>
     <g id="line2d_16">
      <g>
       <use style="stroke:#000000;stroke-width:0.5;" x="34.504646" xlink:href="#m943eb5929a" y="59.491263"/>
      </g>
     </g>
     <g id="text_8">
      <!-- $\mathregular{300000}$ -->
      <defs>
       <path d="M 18.015625 39.703125 
L 18.609375 39.703125 
Q 25 39.703125 28.34375 42.328125 
Q 31.6875 44.96875 31.6875 50 
Q 31.6875 54.546875 28.4375 57.375 
Q 25.203125 60.203125 19.921875 60.203125 
Q 14.59375 60.203125 8.109375 56.890625 
L 8.109375 66.21875 
Q 14.0625 69.1875 21.09375 69.1875 
Q 30.515625 69.1875 35.953125 64.25 
Q 41.40625 59.328125 41.40625 50.78125 
Q 41.40625 45.609375 39.296875 42.0625 
Q 37.203125 38.53125 32.625 35.984375 
Q 36.625 34.421875 38.46875 32.15625 
Q 40.328125 29.890625 41.359375 26.65625 
Q 42.390625 23.4375 42.390625 19.828125 
Q 42.390625 10.890625 36.421875 5.046875 
Q 30.46875 -0.78125 21.390625 -0.78125 
Q 13.625 -0.78125 6.390625 2.984375 
L 6.390625 13.625 
Q 14.109375 8.796875 21.390625 8.796875 
Q 26.3125 8.796875 29.3125 11.71875 
Q 32.328125 14.65625 32.328125 19.484375 
Q 32.328125 23.53125 29.828125 26.5625 
Q 28.375 28.265625 26.59375 29.078125 
Q 24.8125 29.890625 18.890625 30.609375 
L 18.015625 30.71875 
z
" id="GillSans-51"/>
      </defs>
      <g transform="translate(4.004646 62.561107)scale(0.09 -0.09)">
       <use transform="translate(0 0.8125)" xlink:href="#GillSans-51"/>
       <use transform="translate(50 0.8125)" xlink:href="#GillSans-48"/>
       <use transform="translate(100 0.8125)" xlink:href="#GillSans-48"/>
       <use transform="translate(150 0.8125)" xlink:href="#GillSans-48"/>
       <use transform="translate(200 0.8125)" xlink:href="#GillSans-48"/>
       <use transform="translate(250 0.8125)" xlink:href="#GillSans-48"/>
      </g>
     </g>
    </g>
   </g>
   <g id="line2d_17">
    <path clip-path="url(#p290d3ee452)" d="M 45.674288 81.60265 
L 50.63139 79.345043 
L 55.588491 76.766683 
L 60.545593 74.61668 
L 65.34105 72.086981 
L 70.298151 70.248135 
L 75.255252 68.358572 
L 80.212354 66.769886 
L 85.061692 65.234658 
L 90.018794 62.927705 
L 94.975895 61.159452 
L 99.932997 59.750333 
L 104.728453 58.375482 
L 109.685555 56.964306 
L 114.642656 56.66617 
L 119.599758 54.459281 
L 124.395214 53.592289 
L 129.352316 52.49981 
L 134.309417 50.662335 
L 139.266519 49.898833 
L 144.061976 48.778254 
L 149.019077 46.800278 
L 153.976178 45.285612 
L 158.93328 44.540615 
L 163.782618 42.4989 
L 168.73972 40.684727 
L 173.696821 39.383211 
L 178.653923 37.58206 
L 183.449379 35.702777 
L 188.406481 33.96331 
L 193.363582 32.777621 
L 198.320684 31.684457 
L 203.116141 30.444624 
L 208.073242 29.478938 
L 213.030343 29.86343 
L 217.987445 29.448782 
L 222.782902 29.091019 
L 227.740003 28.165085 
L 232.697105 28.26652 
L 237.654206 27.316598 
L 242.503544 26.72718 
L 247.460646 25.949971 
L 252.417747 25.702553 
L 257.374849 25.126157 
L 262.170306 24.686836 
L 267.127407 25.924613 
L 272.084508 27.925891 
L 277.04161 29.919631 
L 281.837067 31.664581 
L 286.794168 33.582245 
L 291.75127 35.626016 
L 296.708371 38.669741 
L 301.503828 42.558527 
L 306.460929 48.458872 
L 311.418031 52.915829 
L 316.375132 57.653102 
L 321.224471 64.055823 
L 326.181572 74.478235 
L 331.138673 83.473708 
L 336.095775 91.845495 
L 340.891232 102.374139 
L 345.848333 113.215997 
L 350.805435 117.657191 
L 355.762536 122.147731 
L 360.557993 125.456009 
L 365.515094 131.46053 
L 370.472196 137.227913 
L 375.429297 140.259302 
L 380.224754 143.592253 
L 385.181855 147.017044 
L 390.138957 152.171022 
L 395.096058 158.065198 
L 399.945397 163.646846 
L 404.902498 164.42474 
L 409.859599 165.321889 
" style="fill:none;stroke:#009afa;"/>
   </g>
   <g id="line2d_18">
    <path clip-path="url(#p290d3ee452)" d="M 263.840633 265.093164 
L 265.457079 265.041762 
L 267.127407 264.940327 
L 268.797735 264.782692 
L 270.414181 264.373527 
L 272.084508 263.766289 
L 273.700955 263.082976 
L 275.371282 262.495615 
L 277.04161 261.90277 
L 278.550293 261.156403 
L 280.220621 260.513526 
L 281.837067 259.396374 
L 283.507394 258.585582 
L 285.12384 257.574662 
L 286.794168 254.86951 
L 288.464496 252.957329 
L 290.080942 250.755923 
L 291.75127 248.436633 
L 293.367716 245.691728 
L 295.038043 242.793301 
L 296.708371 239.861976 
L 298.217054 237.286358 
L 299.887382 234.369426 
L 301.503828 231.989824 
L 303.174155 229.466979 
L 304.790602 227.20389 
L 306.460929 225.250587 
L 308.131257 223.033417 
L 309.747703 220.902604 
L 311.418031 218.522316 
L 313.034477 216.612877 
L 314.704804 214.523185 
L 316.375132 211.628185 
L 317.937697 209.007333 
L 319.608024 206.040369 
L 321.224471 202.588849 
L 322.894798 198.938571 
L 324.511244 195.30954 
L 326.181572 192.546131 
L 327.8519 188.825261 
L 329.468346 184.55678 
L 331.138673 181.210807 
L 332.75512 178.205462 
L 334.425447 174.532568 
L 336.095775 170.740419 
L 337.604458 166.701538 
L 339.274786 163.624229 
L 340.891232 160.187787 
L 342.561559 156.625922 
L 344.178005 153.292286 
L 345.848333 150.886639 
L 347.518661 148.417253 
L 349.135107 144.862928 
L 350.805435 142.476472 
L 352.421881 141.228414 
L 354.092208 139.353244 
L 355.762536 137.757704 
L 357.271219 135.792064 
L 358.941547 134.17939 
L 360.557993 131.416666 
L 362.22832 128.922607 
L 363.844767 126.749301 
L 365.515094 124.153122 
L 367.185422 121.129957 
L 368.801868 118.605057 
L 370.472196 116.682595 
L 372.088642 116.057539 
L 373.758969 114.291342 
L 375.429297 112.148877 
L 376.93798 110.891224 
L 378.608308 109.729523 
L 380.224754 108.478039 
L 381.895082 106.566544 
L 383.511528 103.657151 
L 385.181855 101.117857 
L 386.852183 97.860982 
L 388.468629 95.031092 
L 390.138957 92.887256 
L 391.755403 90.929841 
L 393.425731 89.012863 
L 395.096058 87.656517 
L 396.658623 84.634038 
L 398.32895 82.730082 
L 399.945397 80.785004 
L 401.615724 79.221676 
L 403.23217 77.458221 
L 404.902498 76.395898 
L 406.572826 74.873008 
L 408.189272 73.927198 
L 409.859599 73.054037 
L 411.476046 72.492035 
L 413.146373 72.126733 
L 414.816701 70.707333 
L 416.325384 69.093973 
L 417.995712 67.623171 
" style="fill:none;stroke:#e36f47;"/>
   </g>
   <g id="patch_3">
    <path d="M 34.504646 272.305354 
L 34.504646 17.474646 
" style="fill:none;stroke:#000000;stroke-linecap:square;stroke-linejoin:miter;"/>
   </g>
   <g id="patch_4">
    <path d="M 34.504646 272.305354 
L 429.165354 272.305354 
" style="fill:none;stroke:#000000;stroke-linecap:square;stroke-linejoin:miter;"/>
   </g>
   <g id="text_9">
    <!-- PIP/DLA Scotland -->
    <defs>
     <path d="M 6.984375 0 
L 6.984375 68.3125 
L 28.609375 68.3125 
Q 38.375 68.3125 44.1875 63.03125 
Q 50 57.765625 50 48.875 
Q 50 42.921875 47.015625 38.328125 
Q 44.046875 33.734375 38.859375 31.65625 
Q 33.6875 29.59375 24.03125 29.59375 
L 16.796875 29.59375 
L 16.796875 0 
z
M 26.90625 59.625 
L 16.796875 59.625 
L 16.796875 38.28125 
L 27.484375 38.28125 
Q 33.453125 38.28125 36.671875 41.078125 
Q 39.890625 43.890625 39.890625 49.125 
Q 39.890625 59.625 26.90625 59.625 
z
" id="GillSans-80"/>
     <path d="M 7.625 68.21875 
L 17.390625 68.21875 
L 17.390625 0 
L 7.625 0 
z
" id="GillSans-73"/>
     <path d="M 7.171875 -1.125 
L 0.203125 -1.125 
L 20.90625 72.796875 
L 27.984375 72.796875 
z
" id="GillSans-47"/>
     <path d="M 7.625 0.09375 
L 7.625 68.21875 
L 30.609375 68.21875 
Q 44.53125 68.21875 52.640625 64.03125 
Q 60.75 59.859375 65.53125 51.75 
Q 70.3125 43.65625 70.3125 34.078125 
Q 70.3125 27.25 67.671875 21 
Q 65.046875 14.75 60.15625 10.015625 
Q 55.171875 5.125 48.578125 2.640625 
Q 44.734375 1.125 41.5 0.609375 
Q 38.28125 0.09375 29.203125 0.09375 
z
M 29.59375 59.515625 
L 17.390625 59.515625 
L 17.390625 8.796875 
L 29.890625 8.796875 
Q 37.203125 8.796875 41.25 9.796875 
Q 45.3125 10.796875 48.015625 12.328125 
Q 50.734375 13.875 52.984375 16.109375 
Q 60.203125 23.4375 60.203125 34.625 
Q 60.203125 45.609375 52.78125 52.546875 
Q 50.046875 55.125 46.5 56.78125 
Q 42.96875 58.453125 39.796875 58.984375 
Q 36.625 59.515625 29.59375 59.515625 
z
" id="GillSans-68"/>
     <path d="M 7.515625 68.21875 
L 17.28125 68.21875 
L 17.28125 8.890625 
L 48 8.890625 
L 48 0 
L 7.515625 0 
z
" id="GillSans-76"/>
     <path d="M 29.296875 68.609375 
L 36.1875 68.609375 
L 66.703125 0 
L 56.6875 0 
L 47.609375 20.21875 
L 18.609375 20.21875 
L 10.015625 0 
L 0 0 
z
M 43.609375 28.90625 
L 32.625 53.609375 
L 22.40625 28.90625 
z
" id="GillSans-65"/>
     <path id="GillSans-32"/>
     <path d="M 24.421875 28.609375 
L 17 33.109375 
Q 10.015625 37.359375 7.0625 41.484375 
Q 4.109375 45.609375 4.109375 50.984375 
Q 4.109375 59.03125 9.6875 64.0625 
Q 15.28125 69.09375 24.21875 69.09375 
Q 32.765625 69.09375 39.890625 64.3125 
L 39.890625 53.21875 
Q 32.515625 60.296875 24.03125 60.296875 
Q 19.234375 60.296875 16.15625 58.078125 
Q 13.09375 55.859375 13.09375 52.390625 
Q 13.09375 49.3125 15.328125 46.625 
Q 17.578125 43.953125 22.609375 41.015625 
L 30.078125 36.625 
Q 42.578125 29.203125 42.578125 17.671875 
Q 42.578125 9.46875 37.078125 4.34375 
Q 31.59375 -0.78125 22.796875 -0.78125 
Q 12.703125 -0.78125 4.390625 5.421875 
L 4.390625 17.828125 
Q 12.3125 7.8125 22.703125 7.8125 
Q 27.296875 7.8125 30.34375 10.375 
Q 33.40625 12.9375 33.40625 16.796875 
Q 33.40625 23.046875 24.421875 28.609375 
z
" id="GillSans-83"/>
     <path d="M 39.984375 10.5 
L 39.984375 1.703125 
Q 33.296875 -0.78125 26.90625 -0.78125 
Q 16.359375 -0.78125 10.078125 5.46875 
Q 3.8125 11.71875 3.8125 22.21875 
Q 3.8125 32.8125 9.90625 39.296875 
Q 16.015625 45.796875 25.984375 45.796875 
Q 29.4375 45.796875 32.203125 45.140625 
Q 34.96875 44.484375 39.015625 42.671875 
L 39.015625 33.203125 
Q 32.28125 37.5 26.515625 37.5 
Q 20.515625 37.5 16.65625 33.265625 
Q 12.796875 29.046875 12.796875 22.515625 
Q 12.796875 15.625 16.96875 11.5625 
Q 21.140625 7.515625 28.21875 7.515625 
Q 33.34375 7.515625 39.984375 10.5 
z
" id="GillSans-99"/>
     <path d="M 27.78125 45.015625 
Q 38.03125 45.015625 44.8125 38.390625 
Q 51.609375 31.78125 51.609375 21.78125 
Q 51.609375 12.0625 44.71875 5.640625 
Q 37.84375 -0.78125 27.390625 -0.78125 
Q 17.28125 -0.78125 10.5 5.734375 
Q 3.71875 12.25 3.71875 22.015625 
Q 3.71875 31.890625 10.578125 38.453125 
Q 17.4375 45.015625 27.78125 45.015625 
z
M 27.296875 37.015625 
Q 20.90625 37.015625 16.796875 32.8125 
Q 12.703125 28.609375 12.703125 22.125 
Q 12.703125 15.671875 16.890625 11.59375 
Q 21.09375 7.515625 27.6875 7.515625 
Q 34.234375 7.515625 38.40625 11.640625 
Q 42.578125 15.765625 42.578125 22.21875 
Q 42.578125 28.609375 38.234375 32.8125 
Q 33.890625 37.015625 27.296875 37.015625 
z
" id="GillSans-111"/>
     <path d="M 0 37.796875 
L 16.703125 54.203125 
L 16.703125 44.921875 
L 30.90625 44.921875 
L 30.90625 36.921875 
L 16.703125 36.921875 
L 16.703125 14.890625 
Q 16.703125 7.171875 23.09375 7.171875 
Q 27.875 7.171875 33.203125 10.40625 
L 33.203125 2.09375 
Q 28.078125 -0.78125 22.015625 -0.78125 
Q 15.921875 -0.78125 11.859375 2.78125 
Q 10.59375 3.859375 9.765625 5.203125 
Q 8.9375 6.546875 8.375 8.71875 
Q 7.8125 10.890625 7.8125 17 
L 7.8125 36.921875 
L 0 36.921875 
z
" id="GillSans-116"/>
     <path d="M 6.5 68.21875 
L 15.375 68.21875 
L 15.375 0 
L 6.5 0 
z
" id="GillSans-108"/>
     <path d="M 34.515625 27 
L 34.515625 7.90625 
Q 34.515625 5.609375 36.078125 5.609375 
Q 37.703125 5.609375 41.109375 8.015625 
L 41.109375 2.59375 
Q 38.09375 0.640625 36.25 -0.0625 
Q 34.421875 -0.78125 32.421875 -0.78125 
Q 26.703125 -0.78125 25.6875 3.71875 
Q 20.015625 -0.6875 13.625 -0.6875 
Q 8.9375 -0.6875 5.8125 2.40625 
Q 2.6875 5.515625 2.6875 10.203125 
Q 2.6875 14.453125 5.734375 17.796875 
Q 8.796875 21.140625 14.40625 23.09375 
L 25.78125 27 
L 25.78125 29.390625 
Q 25.78125 37.5 17.671875 37.5 
Q 10.40625 37.5 3.515625 29.984375 
L 3.515625 39.703125 
Q 8.6875 45.796875 18.40625 45.796875 
Q 25.6875 45.796875 30.078125 42 
Q 31.546875 40.765625 32.71875 38.734375 
Q 33.890625 36.71875 34.203125 34.6875 
Q 34.515625 32.671875 34.515625 27 
z
M 25.78125 8.890625 
L 25.78125 22.21875 
L 19.828125 19.921875 
Q 15.28125 18.109375 13.40625 16.28125 
Q 11.53125 14.453125 11.53125 11.71875 
Q 11.53125 8.9375 13.3125 7.171875 
Q 15.09375 5.421875 17.921875 5.421875 
Q 22.171875 5.421875 25.78125 8.890625 
z
" id="GillSans-97"/>
     <path d="M 15.1875 44.921875 
L 15.1875 39.203125 
Q 21.140625 45.796875 28.71875 45.796875 
Q 32.90625 45.796875 36.515625 43.625 
Q 40.140625 41.453125 42.015625 37.671875 
Q 43.890625 33.890625 43.890625 25.6875 
L 43.890625 0 
L 35.015625 0 
L 35.015625 25.59375 
Q 35.015625 32.46875 32.90625 35.421875 
Q 30.8125 38.375 25.875 38.375 
Q 19.578125 38.375 15.1875 32.078125 
L 15.1875 0 
L 6.109375 0 
L 6.109375 44.921875 
z
" id="GillSans-110"/>
     <path d="M 36.28125 68.21875 
L 45.21875 68.21875 
L 45.21875 0 
L 26.21875 0 
Q 16.265625 0 10.328125 6.296875 
Q 4.390625 12.59375 4.390625 23.1875 
Q 4.390625 33.109375 10.609375 39.5 
Q 16.84375 45.90625 26.515625 45.90625 
Q 31 45.90625 36.28125 44 
z
M 36.28125 7.625 
L 36.28125 36.078125 
Q 32.125 38.1875 27.875 38.1875 
Q 21.234375 38.1875 17.296875 33.84375 
Q 13.375 29.5 13.375 22.125 
Q 13.375 15.1875 16.796875 11.421875 
Q 18.84375 9.1875 21.140625 8.40625 
Q 23.4375 7.625 29.390625 7.625 
z
" id="GillSans-100"/>
    </defs>
    <g style="fill:#808080;" transform="translate(188.802813 11.474646)scale(0.12 -0.12)">
     <use xlink:href="#GillSans-80"/>
     <use x="50.976562" xlink:href="#GillSans-73"/>
     <use x="75.976562" xlink:href="#GillSans-80"/>
     <use x="126.953125" xlink:href="#GillSans-47"/>
     <use x="155.029297" xlink:href="#GillSans-68"/>
     <use x="230.029297" xlink:href="#GillSans-76"/>
     <use x="279.052734" xlink:href="#GillSans-65"/>
     <use x="345.751953" xlink:href="#GillSans-32"/>
     <use x="373.535156" xlink:href="#GillSans-83"/>
     <use x="419.335938" xlink:href="#GillSans-99"/>
     <use x="463.134766" xlink:href="#GillSans-111"/>
     <use x="518.310547" xlink:href="#GillSans-116"/>
     <use x="551.611328" xlink:href="#GillSans-108"/>
     <use x="573.535156" xlink:href="#GillSans-97"/>
     <use x="616.210938" xlink:href="#GillSans-110"/>
     <use x="666.210938" xlink:href="#GillSans-100"/>
    </g>
   </g>
   <g id="legend_1">
    <g id="patch_5">
     <path d="M 354.284573 66.514021 
L 423.665354 66.514021 
L 423.665354 22.974646 
L 354.284573 22.974646 
z
" style="fill:#ffffff;stroke:#000000;stroke-linejoin:miter;"/>
    </g>
    <g id="line2d_19">
     <path d="M 363.084573 35.624646 
L 385.084573 35.624646 
" style="fill:none;stroke:#009afa;stroke-linejoin:miter;stroke-width:1.375;"/>
    </g>
    <g id="line2d_20"/>
    <g id="text_10">
     <!-- DLA -->
     <g transform="translate(393.884573 39.474646)scale(0.11 -0.11)">
      <use xlink:href="#GillSans-68"/>
      <use x="75" xlink:href="#GillSans-76"/>
      <use x="124.023438" xlink:href="#GillSans-65"/>
     </g>
    </g>
    <g id="line2d_21">
     <path d="M 363.084573 51.344333 
L 385.084573 51.344333 
" style="fill:none;stroke:#e36f47;stroke-linejoin:miter;stroke-width:1.375;"/>
    </g>
    <g id="line2d_22"/>
    <g id="text_11">
     <!-- PIP -->
     <g transform="translate(393.884573 55.194333)scale(0.11 -0.11)">
      <use xlink:href="#GillSans-80"/>
      <use x="50.976562" xlink:href="#GillSans-73"/>
      <use x="75.976562" xlink:href="#GillSans-80"/>
     </g>
    </g>
   </g>
  </g>
 </g>
 <defs>
  <clipPath id="p290d3ee452">
   <rect height="254.830709" width="394.660709" x="34.504646" y="17.474646"/>
  </clipPath>
 </defs>
</svg>
