<?xml version="1.0" encoding="utf-8" standalone="no"?>
<!DOCTYPE svg PUBLIC "-//W3C//DTD SVG 1.1//EN"
  "http://www.w3.org/Graphics/SVG/1.1/DTD/svg11.dtd">
<!-- Created with matplotlib (https://matplotlib.org/) -->
<svg height="288pt" version="1.1" viewBox="0 0 432 288" width="432pt" xmlns="http://www.w3.org/2000/svg" xmlns:xlink="http://www.w3.org/1999/xlink">
 <defs>
  <style type="text/css">
*{stroke-linecap:butt;stroke-linejoin:round;}
  </style>
 </defs>
 <g id="figure_1">
  <g id="patch_1">
   <path d="M 0 288 
L 432 288 
L 432 0 
L 0 0 
z
" style="fill:#ffffff;"/>
  </g>
  <g id="axes_1">
   <g id="patch_2">
    <path d="M 39.004646 272.305354 
L 429.165354 272.305354 
L 429.165354 17.474646 
L 39.004646 17.474646 
z
" style="fill:#ffffff;"/>
   </g>
   <g id="matplotlib.axis_1">
    <g id="xtick_1">
     <g id="line2d_1">
      <path clip-path="url(#pd51cc7d5b0)" d="M 43.65487 272.305354 
L 43.65487 17.474646 
" style="fill:none;stroke:#000000;stroke-linecap:square;stroke-opacity:0.1;stroke-width:0.5;"/>
     </g>
     <g id="line2d_2">
      <defs>
       <path d="M 0 0 
L 0 -2.5 
" id="m4b4d324949" style="stroke:#000000;stroke-width:0.5;"/>
      </defs>
      <g>
       <use style="stroke:#000000;stroke-width:0.5;" x="43.65487" xlink:href="#m4b4d324949" y="272.305354"/>
      </g>
     </g>
     <g id="text_1">
      <!-- $\mathregular{2002-01-01}$ -->
      <defs>
       <path d="M 20.609375 9.421875 
L 46.578125 9.421875 
L 46.578125 0 
L 3.421875 0 
L 3.421875 0.6875 
L 7.515625 5.515625 
Q 17.140625 17.4375 22.828125 25.734375 
Q 28.515625 34.03125 30.25 38.28125 
Q 31.984375 42.53125 31.984375 46.6875 
Q 31.984375 52.4375 28.703125 55.921875 
Q 25.4375 59.421875 20.015625 59.421875 
Q 15.921875 59.421875 11.9375 57 
Q 7.953125 54.59375 4.78125 50.203125 
L 4.78125 62.59375 
Q 12.75 69.09375 21.1875 69.09375 
Q 30.125 69.09375 35.90625 63.125 
Q 41.703125 57.171875 41.703125 48 
Q 41.703125 43.890625 40.25 39.234375 
Q 38.8125 34.578125 35.15625 28.484375 
Q 31.5 22.40625 22.703125 11.921875 
z
" id="GillSans-50"/>
       <path d="M 25.390625 69.09375 
Q 34.765625 69.09375 40.890625 59.25 
Q 47.015625 49.421875 47.015625 34.28125 
Q 47.015625 18.75 40.890625 9.03125 
Q 34.765625 -0.6875 25 -0.6875 
Q 15.09375 -0.6875 9.078125 8.828125 
Q 3.078125 18.359375 3.078125 34.078125 
Q 3.078125 49.609375 9.28125 59.34375 
Q 15.484375 69.09375 25.390625 69.09375 
z
M 25.484375 59.8125 
L 25 59.8125 
Q 19.390625 59.8125 16.09375 52.90625 
Q 12.796875 46 12.796875 34.1875 
Q 12.796875 22.078125 16.015625 15.1875 
Q 19.234375 8.296875 24.90625 8.296875 
Q 30.5625 8.296875 33.828125 15.1875 
Q 37.109375 22.078125 37.109375 33.890625 
Q 37.109375 45.75 33.953125 52.78125 
Q 30.8125 59.8125 25.484375 59.8125 
z
" id="GillSans-48"/>
       <path d="M 6.78125 29.203125 
L 6.78125 35.59375 
L 59.90625 35.59375 
L 59.90625 29.203125 
z
" id="GillSans-8722"/>
       <path d="M 20.21875 68.21875 
L 29.984375 68.21875 
L 29.984375 0 
L 20.21875 0 
z
" id="GillSans-49"/>
      </defs>
      <g transform="translate(16.83487 281.945042)scale(0.09 -0.09)">
       <use transform="translate(0 0.90625)" xlink:href="#GillSans-50"/>
       <use transform="translate(50 0.90625)" xlink:href="#GillSans-48"/>
       <use transform="translate(100 0.90625)" xlink:href="#GillSans-48"/>
       <use transform="translate(150 0.90625)" xlink:href="#GillSans-50"/>
       <use transform="translate(215.419922 0.90625)" xlink:href="#GillSans-8722"/>
       <use transform="translate(297.539062 0.90625)" xlink:href="#GillSans-48"/>
       <use transform="translate(347.539062 0.90625)" xlink:href="#GillSans-49"/>
       <use transform="translate(412.958984 0.90625)" xlink:href="#GillSans-8722"/>
       <use transform="translate(495.078125 0.90625)" xlink:href="#GillSans-48"/>
       <use transform="translate(545.078125 0.90625)" xlink:href="#GillSans-49"/>
      </g>
     </g>
    </g>
    <g id="xtick_2">
     <g id="line2d_3">
      <path clip-path="url(#pd51cc7d5b0)" d="M 140.920721 272.305354 
L 140.920721 17.474646 
" style="fill:none;stroke:#000000;stroke-linecap:square;stroke-opacity:0.1;stroke-width:0.5;"/>
     </g>
     <g id="line2d_4">
      <g>
       <use style="stroke:#000000;stroke-width:0.5;" x="140.920721" xlink:href="#m4b4d324949" y="272.305354"/>
      </g>
     </g>
     <g id="text_2">
      <!-- $\mathregular{2007-01-01}$ -->
      <defs>
       <path d="M 4.890625 68.21875 
L 49.03125 68.21875 
L 18.109375 -0.78125 
L 9.421875 2.875 
L 34.421875 58.890625 
L 4.890625 58.890625 
z
" id="GillSans-55"/>
      </defs>
      <g transform="translate(114.100721 281.945042)scale(0.09 -0.09)">
       <use transform="translate(0 0.90625)" xlink:href="#GillSans-50"/>
       <use transform="translate(50 0.90625)" xlink:href="#GillSans-48"/>
       <use transform="translate(100 0.90625)" xlink:href="#GillSans-48"/>
       <use transform="translate(150 0.90625)" xlink:href="#GillSans-55"/>
       <use transform="translate(215.419922 0.90625)" xlink:href="#GillSans-8722"/>
       <use transform="translate(297.539062 0.90625)" xlink:href="#GillSans-48"/>
       <use transform="translate(347.539062 0.90625)" xlink:href="#GillSans-49"/>
       <use transform="translate(412.958984 0.90625)" xlink:href="#GillSans-8722"/>
       <use transform="translate(495.078125 0.90625)" xlink:href="#GillSans-48"/>
       <use transform="translate(545.078125 0.90625)" xlink:href="#GillSans-49"/>
      </g>
     </g>
    </g>
    <g id="xtick_3">
     <g id="line2d_5">
      <path clip-path="url(#pd51cc7d5b0)" d="M 238.186572 272.305354 
L 238.186572 17.474646 
" style="fill:none;stroke:#000000;stroke-linecap:square;stroke-opacity:0.1;stroke-width:0.5;"/>
     </g>
     <g id="line2d_6">
      <g>
       <use style="stroke:#000000;stroke-width:0.5;" x="238.186572" xlink:href="#m4b4d324949" y="272.305354"/>
      </g>
     </g>
     <g id="text_3">
      <!-- $\mathregular{2012-01-01}$ -->
      <g transform="translate(211.366572 281.945042)scale(0.09 -0.09)">
       <use transform="translate(0 0.90625)" xlink:href="#GillSans-50"/>
       <use transform="translate(50 0.90625)" xlink:href="#GillSans-48"/>
       <use transform="translate(100 0.90625)" xlink:href="#GillSans-49"/>
       <use transform="translate(150 0.90625)" xlink:href="#GillSans-50"/>
       <use transform="translate(215.419922 0.90625)" xlink:href="#GillSans-8722"/>
       <use transform="translate(297.539062 0.90625)" xlink:href="#GillSans-48"/>
       <use transform="translate(347.539062 0.90625)" xlink:href="#GillSans-49"/>
       <use transform="translate(412.958984 0.90625)" xlink:href="#GillSans-8722"/>
       <use transform="translate(495.078125 0.90625)" xlink:href="#GillSans-48"/>
       <use transform="translate(545.078125 0.90625)" xlink:href="#GillSans-49"/>
      </g>
     </g>
    </g>
    <g id="xtick_4">
     <g id="line2d_7">
      <path clip-path="url(#pd51cc7d5b0)" d="M 335.50569 272.305354 
L 335.50569 17.474646 
" style="fill:none;stroke:#000000;stroke-linecap:square;stroke-opacity:0.1;stroke-width:0.5;"/>
     </g>
     <g id="line2d_8">
      <g>
       <use style="stroke:#000000;stroke-width:0.5;" x="335.50569" xlink:href="#m4b4d324949" y="272.305354"/>
      </g>
     </g>
     <g id="text_4">
      <!-- $\mathregular{2017-01-01}$ -->
      <g transform="translate(308.68569 281.945042)scale(0.09 -0.09)">
       <use transform="translate(0 0.90625)" xlink:href="#GillSans-50"/>
       <use transform="translate(50 0.90625)" xlink:href="#GillSans-48"/>
       <use transform="translate(100 0.90625)" xlink:href="#GillSans-49"/>
       <use transform="translate(150 0.90625)" xlink:href="#GillSans-55"/>
       <use transform="translate(215.419922 0.90625)" xlink:href="#GillSans-8722"/>
       <use transform="translate(297.539062 0.90625)" xlink:href="#GillSans-48"/>
       <use transform="translate(347.539062 0.90625)" xlink:href="#GillSans-49"/>
       <use transform="translate(412.958984 0.90625)" xlink:href="#GillSans-8722"/>
       <use transform="translate(495.078125 0.90625)" xlink:href="#GillSans-48"/>
       <use transform="translate(545.078125 0.90625)" xlink:href="#GillSans-49"/>
      </g>
     </g>
    </g>
   </g>
   <g id="matplotlib.axis_2">
    <g id="ytick_1">
     <g id="line2d_9">
      <path clip-path="url(#pd51cc7d5b0)" d="M 39.004646 272.305354 
L 429.165354 272.305354 
" style="fill:none;stroke:#000000;stroke-linecap:square;stroke-opacity:0.1;stroke-width:0.5;"/>
     </g>
     <g id="line2d_10">
      <defs>
       <path d="M 0 0 
L 2.5 0 
" id="m34f333c813" style="stroke:#000000;stroke-width:0.5;"/>
      </defs>
      <g>
       <use style="stroke:#000000;stroke-width:0.5;" x="39.004646" xlink:href="#m34f333c813" y="272.305354"/>
      </g>
     </g>
     <g id="text_5">
      <!-- $\mathregular{0}$ -->
      <g transform="translate(31.004646 275.375198)scale(0.09 -0.09)">
       <use transform="translate(0 0.90625)" xlink:href="#GillSans-48"/>
      </g>
     </g>
    </g>
    <g id="ytick_2">
     <g id="line2d_11">
      <path clip-path="url(#pd51cc7d5b0)" d="M 39.004646 187.361785 
L 429.165354 187.361785 
" style="fill:none;stroke:#000000;stroke-linecap:square;stroke-opacity:0.1;stroke-width:0.5;"/>
     </g>
     <g id="line2d_12">
      <g>
       <use style="stroke:#000000;stroke-width:0.5;" x="39.004646" xlink:href="#m34f333c813" y="187.361785"/>
      </g>
     </g>
     <g id="text_6">
      <!-- $\mathregular{1000000}$ -->
      <g transform="translate(4.004646 190.431629)scale(0.09 -0.09)">
       <use transform="translate(0 0.90625)" xlink:href="#GillSans-49"/>
       <use transform="translate(50 0.90625)" xlink:href="#GillSans-48"/>
       <use transform="translate(100 0.90625)" xlink:href="#GillSans-48"/>
       <use transform="translate(150 0.90625)" xlink:href="#GillSans-48"/>
       <use transform="translate(200 0.90625)" xlink:href="#GillSans-48"/>
       <use transform="translate(250 0.90625)" xlink:href="#GillSans-48"/>
       <use transform="translate(300 0.90625)" xlink:href="#GillSans-48"/>
      </g>
     </g>
    </g>
    <g id="ytick_3">
     <g id="line2d_13">
      <path clip-path="url(#pd51cc7d5b0)" d="M 39.004646 102.418215 
L 429.165354 102.418215 
" style="fill:none;stroke:#000000;stroke-linecap:square;stroke-opacity:0.1;stroke-width:0.5;"/>
     </g>
     <g id="line2d_14">
      <g>
       <use style="stroke:#000000;stroke-width:0.5;" x="39.004646" xlink:href="#m34f333c813" y="102.418215"/>
      </g>
     </g>
     <g id="text_7">
      <!-- $\mathregular{2000000}$ -->
      <g transform="translate(4.004646 105.488059)scale(0.09 -0.09)">
       <use transform="translate(0 0.90625)" xlink:href="#GillSans-50"/>
       <use transform="translate(50 0.90625)" xlink:href="#GillSans-48"/>
       <use transform="translate(100 0.90625)" xlink:href="#GillSans-48"/>
       <use transform="translate(150 0.90625)" xlink:href="#GillSans-48"/>
       <use transform="translate(200 0.90625)" xlink:href="#GillSans-48"/>
       <use transform="translate(250 0.90625)" xlink:href="#GillSans-48"/>
       <use transform="translate(300 0.90625)" xlink:href="#GillSans-48"/>
      </g>
     </g>
    </g>
    <g id="ytick_4">
     <g id="line2d_15">
      <path clip-path="url(#pd51cc7d5b0)" d="M 39.004646 17.474646 
L 429.165354 17.474646 
" style="fill:none;stroke:#000000;stroke-linecap:square;stroke-opacity:0.1;stroke-width:0.5;"/>
     </g>
     <g id="line2d_16">
      <g>
       <use style="stroke:#000000;stroke-width:0.5;" x="39.004646" xlink:href="#m34f333c813" y="17.474646"/>
      </g>
     </g>
     <g id="text_8">
      <!-- $\mathregular{3000000}$ -->
      <defs>
       <path d="M 18.015625 39.703125 
L 18.609375 39.703125 
Q 25 39.703125 28.34375 42.328125 
Q 31.6875 44.96875 31.6875 50 
Q 31.6875 54.546875 28.4375 57.375 
Q 25.203125 60.203125 19.921875 60.203125 
Q 14.59375 60.203125 8.109375 56.890625 
L 8.109375 66.21875 
Q 14.0625 69.1875 21.09375 69.1875 
Q 30.515625 69.1875 35.953125 64.25 
Q 41.40625 59.328125 41.40625 50.78125 
Q 41.40625 45.609375 39.296875 42.0625 
Q 37.203125 38.53125 32.625 35.984375 
Q 36.625 34.421875 38.46875 32.15625 
Q 40.328125 29.890625 41.359375 26.65625 
Q 42.390625 23.4375 42.390625 19.828125 
Q 42.390625 10.890625 36.421875 5.046875 
Q 30.46875 -0.78125 21.390625 -0.78125 
Q 13.625 -0.78125 6.390625 2.984375 
L 6.390625 13.625 
Q 14.109375 8.796875 21.390625 8.796875 
Q 26.3125 8.796875 29.3125 11.71875 
Q 32.328125 14.65625 32.328125 19.484375 
Q 32.328125 23.53125 29.828125 26.5625 
Q 28.375 28.265625 26.59375 29.078125 
Q 24.8125 29.890625 18.890625 30.609375 
L 18.015625 30.71875 
z
" id="GillSans-51"/>
      </defs>
      <g transform="translate(4.004646 20.544489)scale(0.09 -0.09)">
       <use transform="translate(0 0.8125)" xlink:href="#GillSans-51"/>
       <use transform="translate(50 0.8125)" xlink:href="#GillSans-48"/>
       <use transform="translate(100 0.8125)" xlink:href="#GillSans-48"/>
       <use transform="translate(150 0.8125)" xlink:href="#GillSans-48"/>
       <use transform="translate(200 0.8125)" xlink:href="#GillSans-48"/>
       <use transform="translate(250 0.8125)" xlink:href="#GillSans-48"/>
       <use transform="translate(300 0.8125)" xlink:href="#GillSans-48"/>
      </g>
     </g>
    </g>
   </g>
   <g id="line2d_17">
    <path clip-path="url(#pd51cc7d5b0)" d="M 50.04693 249.562733 
L 54.947509 249.282929 
L 59.848089 248.963371 
L 64.748669 248.696903 
L 69.489447 248.383376 
L 74.390026 248.155473 
L 79.290606 247.921283 
L 84.191185 247.724384 
L 88.985231 247.534111 
L 93.88581 247.248191 
L 98.78639 247.029036 
L 103.686969 246.854392 
L 108.427747 246.683995 
L 113.328327 246.509097 
L 118.228907 246.472146 
L 123.129486 246.198628 
L 127.870264 246.091174 
L 132.770844 245.955774 
L 137.671423 245.72804 
L 142.572003 245.633413 
L 147.312781 245.494531 
L 152.213361 245.249383 
L 157.11394 245.061658 
L 162.01452 244.969324 
L 166.808565 244.716278 
L 171.709145 244.491432 
L 176.609724 244.330124 
L 181.510304 244.106892 
L 186.251082 243.873977 
L 191.151661 243.65839 
L 196.052241 243.511438 
L 200.952821 243.375953 
L 205.693599 243.22229 
L 210.594178 243.102605 
L 215.494758 243.150258 
L 220.395337 243.098867 
L 225.136116 243.054526 
L 230.036695 242.939768 
L 234.937275 242.952339 
L 239.837854 242.834608 
L 244.6319 242.761556 
L 249.532479 242.66523 
L 254.433059 242.634565 
L 259.333638 242.563128 
L 264.074416 242.508679 
L 268.974996 242.662087 
L 273.875576 242.910122 
L 278.776155 243.157223 
L 283.516933 243.37349 
L 288.417513 243.611162 
L 293.318092 243.864463 
L 298.218672 244.241698 
L 302.95945 244.723668 
L 307.86003 245.454947 
L 312.760609 246.007335 
L 317.661189 246.594465 
L 322.455234 247.388008 
L 327.355814 248.679744 
L 332.256393 249.794629 
L 337.156973 250.832215 
L 341.897751 252.137118 
L 346.79833 253.48084 
L 351.69891 254.031274 
L 356.59949 254.587825 
L 361.340268 254.997847 
L 366.240847 255.742038 
L 371.141427 256.456838 
L 376.042006 256.832543 
L 380.782784 257.245624 
L 385.683364 257.670087 
L 390.583944 258.308863 
L 395.484523 259.039377 
L 400.278568 259.731158 
L 405.179148 259.827569 
L 410.079728 259.93876 
" style="fill:none;stroke:#009afa;"/>
   </g>
   <g id="line2d_18">
    <path clip-path="url(#pd51cc7d5b0)" d="M 50.04693 255.364718 
L 54.947509 255.144969 
L 59.848089 254.921143 
L 64.748669 254.735796 
L 69.489447 254.535924 
L 74.390026 254.358732 
L 79.290606 254.175593 
L 84.191185 254.041128 
L 88.985231 253.919828 
L 93.88581 253.755463 
L 98.78639 253.606047 
L 103.686969 253.533165 
L 108.427747 253.454847 
L 113.328327 253.350961 
L 118.228907 253.300675 
L 123.129486 253.163576 
L 127.870264 253.10471 
L 132.770844 253.053404 
L 137.671423 252.902884 
L 142.572003 252.858458 
L 147.312781 252.793562 
L 152.213361 252.676679 
L 157.11394 252.558013 
L 162.01452 252.514522 
L 166.808565 252.397809 
L 171.709145 252.280587 
L 176.609724 252.205327 
L 181.510304 252.121573 
L 186.251082 252.025417 
L 191.151661 251.928836 
L 196.052241 251.857908 
L 200.952821 251.793351 
L 205.693599 251.744763 
L 210.594178 251.694137 
L 215.494758 251.714863 
L 220.395337 251.714438 
L 225.136116 251.692353 
L 230.036695 251.631024 
L 234.937275 251.662283 
L 239.837854 251.60724 
L 244.6319 251.587533 
L 249.532479 251.561965 
L 254.433059 251.544976 
L 259.333638 251.505053 
L 264.074416 251.508195 
L 268.974996 251.600359 
L 273.875576 251.745273 
L 278.776155 251.884665 
L 283.516933 252.004266 
L 288.417513 252.203374 
L 293.318092 252.707344 
L 298.218672 253.444654 
L 302.95945 254.152574 
L 307.86003 254.599462 
L 312.760609 254.94119 
L 317.661189 255.327004 
L 322.455234 256.126492 
L 327.355814 257.497991 
L 332.256393 258.504573 
L 337.156973 259.150823 
L 341.897751 259.93103 
L 346.79833 260.666217 
L 351.69891 261.08278 
L 356.59949 261.594395 
L 361.340268 261.931196 
L 366.240847 262.254746 
L 371.141427 262.433128 
L 376.042006 262.663495 
L 380.782784 263.124823 
L 385.683364 263.502482 
L 390.583944 264.158926 
L 395.484523 264.608787 
L 400.278568 264.945843 
L 405.179148 265.026455 
L 410.079728 265.142233 
" style="fill:none;stroke:#e36f47;"/>
   </g>
   <g id="patch_3">
    <path d="M 39.004646 272.305354 
L 39.004646 17.474646 
" style="fill:none;stroke:#000000;stroke-linecap:square;stroke-linejoin:miter;"/>
   </g>
   <g id="patch_4">
    <path d="M 39.004646 272.305354 
L 429.165354 272.305354 
" style="fill:none;stroke:#000000;stroke-linecap:square;stroke-linejoin:miter;"/>
   </g>
   <g id="line2d_19">
    <path clip-path="url(#pd51cc7d5b0)" d="M 50.04693 106.245263 
L 54.947509 104.20237 
L 59.848089 101.851047 
L 64.748669 99.953238 
L 69.489447 97.83449 
L 74.390026 95.987223 
L 79.290606 94.002176 
L 84.191185 92.341614 
L 88.985231 91.03892 
L 93.88581 89.128454 
L 98.78639 87.451158 
L 103.686969 86.292613 
L 108.427747 85.111982 
L 113.328327 83.715765 
L 118.228907 83.10519 
L 123.129486 81.134415 
L 127.870264 80.152127 
L 132.770844 79.053892 
L 137.671423 76.768145 
L 142.572003 75.627098 
L 147.312781 74.415039 
L 152.213361 72.413938 
L 157.11394 70.602092 
L 162.01452 69.464952 
L 166.808565 67.471496 
L 171.709145 65.610043 
L 176.609724 64.164134 
L 181.510304 62.402319 
L 186.251082 60.476988 
L 191.151661 58.621226 
L 196.052241 56.912501 
L 200.952821 55.52155 
L 205.693599 54.068845 
L 210.594178 52.648419 
L 215.494758 52.170866 
L 220.395337 51.301129 
L 225.136116 50.471485 
L 230.036695 48.977582 
L 234.937275 48.587861 
L 239.837854 47.343438 
L 244.6319 46.187016 
L 249.532479 45.146288 
L 254.433059 44.304497 
L 259.333638 43.032807 
L 264.074416 42.548119 
L 268.974996 43.395601 
L 273.875576 44.902839 
L 278.776155 46.366587 
L 283.516933 47.459216 
L 288.417513 48.850167 
L 293.318092 50.763266 
L 298.218672 53.855042 
L 302.95945 56.918192 
L 307.86003 60.681277 
L 312.760609 64.318391 
L 317.661189 69.23501 
L 322.455234 75.316799 
L 327.355814 84.041608 
L 332.256393 93.639552 
L 337.156973 102.84701 
L 341.897751 112.611359 
L 346.79833 122.55859 
L 351.69891 127.631166 
L 356.59949 133.933469 
L 361.340268 139.148324 
L 366.240847 147.222126 
L 371.141427 152.614089 
L 376.042006 155.12553 
L 380.782784 157.94124 
L 385.683364 161.809485 
L 390.583944 166.839843 
L 395.484523 171.415923 
L 400.278568 175.757899 
L 405.179148 175.818888 
L 410.079728 176.283699 
" style="fill:none;stroke:#3ea44e;"/>
   </g>
   <g id="text_9">
    <!-- DLA/PIP Cases UK 2002-2020 -->
    <defs>
     <path d="M 7.625 0.09375 
L 7.625 68.21875 
L 30.609375 68.21875 
Q 44.53125 68.21875 52.640625 64.03125 
Q 60.75 59.859375 65.53125 51.75 
Q 70.3125 43.65625 70.3125 34.078125 
Q 70.3125 27.25 67.671875 21 
Q 65.046875 14.75 60.15625 10.015625 
Q 55.171875 5.125 48.578125 2.640625 
Q 44.734375 1.125 41.5 0.609375 
Q 38.28125 0.09375 29.203125 0.09375 
z
M 29.59375 59.515625 
L 17.390625 59.515625 
L 17.390625 8.796875 
L 29.890625 8.796875 
Q 37.203125 8.796875 41.25 9.796875 
Q 45.3125 10.796875 48.015625 12.328125 
Q 50.734375 13.875 52.984375 16.109375 
Q 60.203125 23.4375 60.203125 34.625 
Q 60.203125 45.609375 52.78125 52.546875 
Q 50.046875 55.125 46.5 56.78125 
Q 42.96875 58.453125 39.796875 58.984375 
Q 36.625 59.515625 29.59375 59.515625 
z
" id="GillSans-68"/>
     <path d="M 7.515625 68.21875 
L 17.28125 68.21875 
L 17.28125 8.890625 
L 48 8.890625 
L 48 0 
L 7.515625 0 
z
" id="GillSans-76"/>
     <path d="M 29.296875 68.609375 
L 36.1875 68.609375 
L 66.703125 0 
L 56.6875 0 
L 47.609375 20.21875 
L 18.609375 20.21875 
L 10.015625 0 
L 0 0 
z
M 43.609375 28.90625 
L 32.625 53.609375 
L 22.40625 28.90625 
z
" id="GillSans-65"/>
     <path d="M 7.171875 -1.125 
L 0.203125 -1.125 
L 20.90625 72.796875 
L 27.984375 72.796875 
z
" id="GillSans-47"/>
     <path d="M 6.984375 0 
L 6.984375 68.3125 
L 28.609375 68.3125 
Q 38.375 68.3125 44.1875 63.03125 
Q 50 57.765625 50 48.875 
Q 50 42.921875 47.015625 38.328125 
Q 44.046875 33.734375 38.859375 31.65625 
Q 33.6875 29.59375 24.03125 29.59375 
L 16.796875 29.59375 
L 16.796875 0 
z
M 26.90625 59.625 
L 16.796875 59.625 
L 16.796875 38.28125 
L 27.484375 38.28125 
Q 33.453125 38.28125 36.671875 41.078125 
Q 39.890625 43.890625 39.890625 49.125 
Q 39.890625 59.625 26.90625 59.625 
z
" id="GillSans-80"/>
     <path d="M 7.625 68.21875 
L 17.390625 68.21875 
L 17.390625 0 
L 7.625 0 
z
" id="GillSans-73"/>
     <path id="GillSans-32"/>
     <path d="M 66.3125 15.828125 
L 66.3125 5.078125 
Q 55.5625 -0.78125 41.5 -0.78125 
Q 30.078125 -0.78125 22.109375 3.8125 
Q 14.15625 8.40625 9.515625 16.453125 
Q 4.890625 24.515625 4.890625 33.890625 
Q 4.890625 48.78125 15.5 58.9375 
Q 26.125 69.09375 41.703125 69.09375 
Q 52.4375 69.09375 65.578125 63.484375 
L 65.578125 52.984375 
Q 53.609375 59.8125 42.1875 59.8125 
Q 30.46875 59.8125 22.71875 52.40625 
Q 14.984375 45.015625 14.984375 33.890625 
Q 14.984375 22.65625 22.59375 15.421875 
Q 30.21875 8.203125 42.09375 8.203125 
Q 54.5 8.203125 66.3125 15.828125 
z
" id="GillSans-67"/>
     <path d="M 34.515625 27 
L 34.515625 7.90625 
Q 34.515625 5.609375 36.078125 5.609375 
Q 37.703125 5.609375 41.109375 8.015625 
L 41.109375 2.59375 
Q 38.09375 0.640625 36.25 -0.0625 
Q 34.421875 -0.78125 32.421875 -0.78125 
Q 26.703125 -0.78125 25.6875 3.71875 
Q 20.015625 -0.6875 13.625 -0.6875 
Q 8.9375 -0.6875 5.8125 2.40625 
Q 2.6875 5.515625 2.6875 10.203125 
Q 2.6875 14.453125 5.734375 17.796875 
Q 8.796875 21.140625 14.40625 23.09375 
L 25.78125 27 
L 25.78125 29.390625 
Q 25.78125 37.5 17.671875 37.5 
Q 10.40625 37.5 3.515625 29.984375 
L 3.515625 39.703125 
Q 8.6875 45.796875 18.40625 45.796875 
Q 25.6875 45.796875 30.078125 42 
Q 31.546875 40.765625 32.71875 38.734375 
Q 33.890625 36.71875 34.203125 34.6875 
Q 34.515625 32.671875 34.515625 27 
z
M 25.78125 8.890625 
L 25.78125 22.21875 
L 19.828125 19.921875 
Q 15.28125 18.109375 13.40625 16.28125 
Q 11.53125 14.453125 11.53125 11.71875 
Q 11.53125 8.9375 13.3125 7.171875 
Q 15.09375 5.421875 17.921875 5.421875 
Q 22.171875 5.421875 25.78125 8.890625 
z
" id="GillSans-97"/>
     <path d="M 4.109375 3.21875 
L 4.109375 12.796875 
Q 7.859375 10.15625 11.78125 8.515625 
Q 15.71875 6.890625 18.40625 6.890625 
Q 21.1875 6.890625 23.1875 8.25 
Q 25.203125 9.625 25.203125 11.53125 
Q 25.203125 13.484375 23.90625 14.765625 
Q 22.609375 16.0625 18.3125 18.5 
Q 9.71875 23.296875 7.046875 26.6875 
Q 4.390625 30.078125 4.390625 34.078125 
Q 4.390625 39.265625 8.421875 42.53125 
Q 12.453125 45.796875 18.796875 45.796875 
Q 25.390625 45.796875 32.328125 42.09375 
L 32.328125 33.296875 
Q 24.421875 38.09375 19.390625 38.09375 
Q 16.796875 38.09375 15.203125 36.984375 
Q 13.625 35.890625 13.625 34.078125 
Q 13.625 32.515625 15.0625 31.09375 
Q 16.5 29.6875 20.125 27.6875 
L 23.296875 25.875 
Q 34.515625 19.53125 34.515625 11.8125 
Q 34.515625 6.296875 30.1875 2.75 
Q 25.875 -0.78125 19.09375 -0.78125 
Q 15.09375 -0.78125 11.96875 0.0625 
Q 8.84375 0.921875 4.109375 3.21875 
z
" id="GillSans-115"/>
     <path d="M 44.578125 21.6875 
L 12.984375 21.6875 
Q 13.328125 15.234375 17.3125 11.421875 
Q 21.296875 7.625 27.59375 7.625 
Q 36.375 7.625 43.796875 13.09375 
L 43.796875 4.390625 
Q 39.703125 1.65625 35.671875 0.484375 
Q 31.640625 -0.6875 26.21875 -0.6875 
Q 18.796875 -0.6875 14.203125 2.390625 
Q 9.625 5.46875 6.859375 10.671875 
Q 4.109375 15.875 4.109375 22.703125 
Q 4.109375 32.953125 9.90625 39.375 
Q 15.71875 45.796875 25 45.796875 
Q 33.9375 45.796875 39.25 39.546875 
Q 44.578125 33.296875 44.578125 22.796875 
z
M 13.1875 27 
L 35.796875 27 
Q 35.453125 32.328125 32.609375 35.203125 
Q 29.78125 38.09375 25 38.09375 
Q 20.21875 38.09375 17.15625 35.203125 
Q 14.109375 32.328125 13.1875 27 
z
" id="GillSans-101"/>
     <path d="M 54.984375 68.21875 
L 64.796875 68.21875 
L 64.796875 29.5 
Q 64.796875 21.625 63.640625 17.625 
Q 62.5 13.625 60.8125 10.953125 
Q 59.125 8.296875 56.6875 6.203125 
Q 48.578125 -0.78125 35.5 -0.78125 
Q 22.171875 -0.78125 14.109375 6.15625 
Q 11.671875 8.296875 9.984375 10.953125 
Q 8.296875 13.625 7.203125 17.484375 
Q 6.109375 21.34375 6.109375 29.59375 
L 6.109375 68.21875 
L 15.921875 68.21875 
L 15.921875 29.5 
Q 15.921875 19.875 18.109375 16.109375 
Q 20.3125 12.359375 24.796875 10.078125 
Q 29.296875 7.8125 35.40625 7.8125 
Q 44.09375 7.8125 49.5625 12.359375 
Q 52.4375 14.796875 53.703125 18.109375 
Q 54.984375 21.4375 54.984375 29.5 
z
" id="GillSans-85"/>
     <path d="M 46.09375 68.21875 
L 58.296875 68.21875 
L 28.71875 35.890625 
L 65.578125 0 
L 52.203125 0 
L 17.390625 33.6875 
L 17.390625 0 
L 7.625 0 
L 7.625 68.21875 
L 17.390625 68.21875 
L 17.390625 37.015625 
z
" id="GillSans-75"/>
     <path d="M 4 26.90625 
L 28.328125 26.90625 
L 28.328125 17.390625 
L 4 17.390625 
z
" id="GillSans-45"/>
    </defs>
    <g style="fill:#808080;" transform="translate(159.914688 11.474646)scale(0.12 -0.12)">
     <use xlink:href="#GillSans-68"/>
     <use x="75" xlink:href="#GillSans-76"/>
     <use x="124.023438" xlink:href="#GillSans-65"/>
     <use x="190.722656" xlink:href="#GillSans-47"/>
     <use x="218.798828" xlink:href="#GillSans-80"/>
     <use x="269.775391" xlink:href="#GillSans-73"/>
     <use x="294.775391" xlink:href="#GillSans-80"/>
     <use x="345.751953" xlink:href="#GillSans-32"/>
     <use x="373.535156" xlink:href="#GillSans-67"/>
     <use x="444.335938" xlink:href="#GillSans-97"/>
     <use x="487.011719" xlink:href="#GillSans-115"/>
     <use x="525.488281" xlink:href="#GillSans-101"/>
     <use x="573.388672" xlink:href="#GillSans-115"/>
     <use x="611.865234" xlink:href="#GillSans-32"/>
     <use x="639.648438" xlink:href="#GillSans-85"/>
     <use x="710.449219" xlink:href="#GillSans-75"/>
     <use x="776.025391" xlink:href="#GillSans-32"/>
     <use x="803.808594" xlink:href="#GillSans-50"/>
     <use x="853.808594" xlink:href="#GillSans-48"/>
     <use x="903.808594" xlink:href="#GillSans-48"/>
     <use x="953.808594" xlink:href="#GillSans-50"/>
     <use x="1003.808594" xlink:href="#GillSans-45"/>
     <use x="1036.132812" xlink:href="#GillSans-50"/>
     <use x="1086.132812" xlink:href="#GillSans-48"/>
     <use x="1136.132812" xlink:href="#GillSans-50"/>
     <use x="1186.132812" xlink:href="#GillSans-48"/>
    </g>
   </g>
   <g id="line2d_20">
    <path clip-path="url(#pd51cc7d5b0)" d="M 265.725699 272.30425 
L 267.323714 272.297879 
L 268.974996 272.285308 
L 270.626278 272.265771 
L 272.224293 272.215059 
L 273.875576 272.139799 
L 275.473591 272.055111 
L 277.124873 271.982314 
L 278.776155 271.908838 
L 280.267636 271.816334 
L 281.918918 271.736657 
L 283.516933 271.598199 
L 285.168215 271.497711 
L 286.76623 271.372419 
L 288.417513 271.037147 
L 290.068795 270.800154 
L 291.66681 270.527316 
L 293.318092 270.239866 
L 294.916107 269.899667 
L 296.56739 269.540441 
L 298.218672 269.177137 
L 299.710153 268.85792 
L 301.361435 268.4964 
L 302.95945 268.201476 
L 304.610732 267.888798 
L 306.208747 267.608315 
L 307.86003 267.366226 
L 309.511312 267.091433 
L 311.109327 266.827344 
L 312.760609 266.532335 
L 314.358624 266.295682 
L 316.009906 266.036689 
L 317.661189 265.677887 
L 319.205937 265.353063 
L 320.857219 264.985342 
L 322.455234 264.557566 
L 324.106516 264.105157 
L 325.704531 263.655381 
L 327.355814 263.312888 
L 329.007096 262.85173 
L 330.605111 262.322701 
L 332.256393 261.908007 
L 333.854408 261.535529 
L 335.50569 261.080316 
L 337.156973 260.610324 
L 338.648453 260.109751 
L 340.299736 259.728355 
L 341.897751 259.302448 
L 343.549033 258.860996 
L 345.147048 258.44783 
L 346.79833 258.149678 
L 348.449613 257.843627 
L 350.047628 257.403109 
L 351.69891 257.107336 
L 353.296925 256.952654 
L 354.948207 256.720248 
L 356.59949 256.522499 
L 358.09097 256.278881 
L 359.742253 256.079009 
L 361.340268 255.736601 
L 362.99155 255.427492 
L 364.589565 255.158136 
L 366.240847 254.836369 
L 367.892129 254.461683 
L 369.490145 254.148751 
L 371.141427 253.910485 
L 372.739442 253.833016 
L 374.390724 253.614116 
L 376.042006 253.348583 
L 377.533487 253.192711 
L 379.184769 253.048732 
L 380.782784 252.893625 
L 382.434067 252.656717 
L 384.032082 252.296132 
L 385.683364 251.981416 
L 387.334646 251.577764 
L 388.932661 251.227032 
L 390.583944 250.961329 
L 392.181959 250.71873 
L 393.833241 250.481143 
L 395.484523 250.313039 
L 397.029271 249.938438 
L 398.680553 249.702465 
L 400.278568 249.461395 
L 401.929851 249.267639 
L 403.527866 249.049079 
L 405.179148 248.917417 
L 406.83043 248.728672 
L 408.428445 248.61145 
L 410.079728 248.503232 
L 411.677743 248.433578 
L 413.329025 248.388303 
L 414.980307 248.212385 
L 416.471788 248.012428 
L 418.12307 247.830139 
" style="fill:none;stroke:#c371d2;"/>
   </g>
   <g id="line2d_21">
    <path clip-path="url(#pd51cc7d5b0)" d="M 265.725699 272.304845 
L 267.323714 272.300682 
L 268.974996 272.293547 
L 270.626278 272.287176 
L 272.224293 272.28191 
L 273.875576 272.273331 
L 275.473591 272.258635 
L 277.124873 272.202233 
L 278.776155 272.124934 
L 280.267636 272.039481 
L 281.918918 271.891764 
L 283.516933 271.813191 
L 285.168215 271.734449 
L 286.76623 271.600662 
L 288.417513 271.324596 
L 290.068795 271.018714 
L 291.66681 270.671635 
L 293.318092 270.259149 
L 294.916107 269.907992 
L 296.56739 269.517676 
L 298.218672 269.214513 
L 299.710153 268.980068 
L 301.361435 268.783254 
L 302.95945 268.62356 
L 304.610732 268.461743 
L 306.208747 268.298736 
L 307.86003 268.141421 
L 309.511312 267.968051 
L 311.109327 267.812774 
L 312.760609 267.667096 
L 314.358624 267.513433 
L 316.009906 267.384149 
L 317.661189 267.164315 
L 319.205937 266.806278 
L 320.857219 266.53089 
L 322.455234 266.095045 
L 324.106516 265.803009 
L 325.704531 265.514456 
L 327.355814 265.122611 
L 329.007096 264.812652 
L 330.605111 264.571582 
L 332.256393 264.373833 
L 333.854408 264.172347 
L 335.50569 263.907748 
L 337.156973 263.688424 
L 338.648453 263.447099 
L 340.299736 263.260903 
L 341.897751 263.011593 
L 343.549033 262.782161 
L 345.147048 262.541856 
L 346.79833 262.349203 
L 348.449613 262.155702 
L 350.047628 261.883968 
L 351.69891 261.624635 
L 353.296925 261.506139 
L 354.948207 261.358252 
L 356.59949 261.212064 
L 358.09097 261.08312 
L 359.742253 260.921557 
L 361.340268 260.784798 
L 362.99155 260.656618 
L 364.589565 260.554771 
L 366.240847 260.408158 
L 367.892129 260.260611 
L 369.490145 260.14874 
L 371.141427 260.041032 
L 372.739442 259.97537 
L 374.390724 259.824256 
L 376.042006 259.573163 
L 377.533487 259.453477 
L 379.184769 259.390279 
L 380.782784 259.256153 
L 382.434067 259.077347 
L 384.032082 258.823706 
L 385.683364 258.541608 
L 387.334646 258.262483 
L 388.932661 257.968579 
L 390.583944 257.743393 
L 392.181959 257.587267 
L 393.833241 257.449489 
L 395.484523 257.327849 
L 397.029271 257.145645 
L 398.680553 256.953673 
L 400.278568 256.738596 
L 401.929851 256.585782 
L 403.527866 256.49965 
L 405.179148 256.442992 
L 406.83043 256.357114 
L 408.428445 256.272935 
L 410.079728 256.186038 
L 411.677743 256.124794 
L 413.329025 256.063634 
L 414.980307 255.947007 
L 416.471788 255.811522 
L 418.12307 255.698122 
" style="fill:none;stroke:#ac8e18;"/>
   </g>
   <g id="line2d_22">
    <path clip-path="url(#pd51cc7d5b0)" d="M 262.476401 272.302806 
L 264.074416 272.284713 
L 265.725699 272.255323 
L 267.323714 272.160016 
L 268.974996 272.043898 
L 270.626278 271.899239 
L 272.224293 271.666324 
L 273.875576 271.32587 
L 275.473591 270.987965 
L 277.124873 270.470573 
L 278.776155 269.986735 
L 280.267636 269.311603 
L 281.918918 268.603344 
L 283.516933 267.830187 
L 285.168215 266.939129 
L 286.76623 265.513267 
L 288.417513 263.426713 
L 290.068795 261.628882 
L 291.66681 259.07344 
L 293.318092 256.259174 
L 294.916107 253.528578 
L 296.56739 250.230474 
L 298.218672 247.385035 
L 299.710153 244.913262 
L 301.361435 242.622588 
L 302.95945 240.637797 
L 304.610732 238.386113 
L 306.208747 236.342116 
L 307.86003 234.674928 
L 309.511312 232.615387 
L 311.109327 230.528833 
L 312.760609 228.422827 
L 314.358624 226.504291 
L 316.009906 224.541755 
L 317.661189 222.165034 
L 319.205937 219.487952 
L 320.857219 216.562326 
L 322.455234 213.684863 
L 324.106516 210.999796 
L 325.704531 208.091923 
L 327.355814 204.859566 
L 329.007096 201.15798 
L 330.605111 197.388524 
L 332.256393 193.78836 
L 333.854408 190.719349 
L 335.50569 187.359831 
L 337.156973 184.269584 
L 338.648453 180.695923 
L 340.299736 178.099113 
L 341.897751 174.977692 
L 343.549033 172.002543 
L 345.147048 169.273052 
L 346.79833 166.690767 
L 348.449613 164.268261 
L 350.047628 161.243931 
L 351.69891 158.372243 
L 353.296925 156.875877 
L 354.948207 154.421518 
L 356.59949 152.594212 
L 358.09097 150.517681 
L 359.742253 148.443529 
L 361.340268 146.10223 
L 362.99155 143.638866 
L 364.589565 141.176352 
L 366.240847 138.473278 
L 367.892129 135.972624 
L 369.490145 133.757381 
L 371.141427 131.911642 
L 372.739442 130.915424 
L 374.390724 129.419907 
L 376.042006 127.416173 
L 377.533487 126.150769 
L 379.184769 125.072665 
L 380.782784 123.553704 
L 382.434067 121.591423 
L 384.032082 118.795335 
L 385.683364 116.053697 
L 387.334646 113.277401 
L 388.932661 110.307519 
L 390.583944 108.118353 
L 392.181959 106.421266 
L 393.833241 105.031759 
L 395.484523 103.730933 
L 397.029271 101.420638 
L 398.680553 99.365513 
L 400.278568 97.5106 
L 401.929851 95.980342 
L 403.527866 94.409056 
L 405.179148 93.254078 
L 406.83043 91.866015 
L 408.428445 90.804051 
L 410.079728 89.590037 
L 411.677743 88.847546 
L 413.329025 88.217604 
L 414.980307 86.762351 
L 416.471788 85.128037 
L 418.12307 83.543075 
" style="fill:none;stroke:#00aaae;"/>
   </g>
   <g id="legend_1">
    <g id="patch_5">
     <path d="M 332.820823 129.392771 
L 423.665354 129.392771 
L 423.665354 22.974646 
L 332.820823 22.974646 
z
" style="fill:#ffffff;stroke:#000000;stroke-linejoin:miter;"/>
    </g>
    <g id="line2d_23">
     <path d="M 341.620823 35.624646 
L 363.620823 35.624646 
" style="fill:none;stroke:#009afa;stroke-linejoin:miter;stroke-width:1.375;"/>
    </g>
    <g id="line2d_24"/>
    <g id="text_10">
     <!-- DLA-Sco -->
     <defs>
      <path d="M 24.421875 28.609375 
L 17 33.109375 
Q 10.015625 37.359375 7.0625 41.484375 
Q 4.109375 45.609375 4.109375 50.984375 
Q 4.109375 59.03125 9.6875 64.0625 
Q 15.28125 69.09375 24.21875 69.09375 
Q 32.765625 69.09375 39.890625 64.3125 
L 39.890625 53.21875 
Q 32.515625 60.296875 24.03125 60.296875 
Q 19.234375 60.296875 16.15625 58.078125 
Q 13.09375 55.859375 13.09375 52.390625 
Q 13.09375 49.3125 15.328125 46.625 
Q 17.578125 43.953125 22.609375 41.015625 
L 30.078125 36.625 
Q 42.578125 29.203125 42.578125 17.671875 
Q 42.578125 9.46875 37.078125 4.34375 
Q 31.59375 -0.78125 22.796875 -0.78125 
Q 12.703125 -0.78125 4.390625 5.421875 
L 4.390625 17.828125 
Q 12.3125 7.8125 22.703125 7.8125 
Q 27.296875 7.8125 30.34375 10.375 
Q 33.40625 12.9375 33.40625 16.796875 
Q 33.40625 23.046875 24.421875 28.609375 
z
" id="GillSans-83"/>
      <path d="M 39.984375 10.5 
L 39.984375 1.703125 
Q 33.296875 -0.78125 26.90625 -0.78125 
Q 16.359375 -0.78125 10.078125 5.46875 
Q 3.8125 11.71875 3.8125 22.21875 
Q 3.8125 32.8125 9.90625 39.296875 
Q 16.015625 45.796875 25.984375 45.796875 
Q 29.4375 45.796875 32.203125 45.140625 
Q 34.96875 44.484375 39.015625 42.671875 
L 39.015625 33.203125 
Q 32.28125 37.5 26.515625 37.5 
Q 20.515625 37.5 16.65625 33.265625 
Q 12.796875 29.046875 12.796875 22.515625 
Q 12.796875 15.625 16.96875 11.5625 
Q 21.140625 7.515625 28.21875 7.515625 
Q 33.34375 7.515625 39.984375 10.5 
z
" id="GillSans-99"/>
      <path d="M 27.78125 45.015625 
Q 38.03125 45.015625 44.8125 38.390625 
Q 51.609375 31.78125 51.609375 21.78125 
Q 51.609375 12.0625 44.71875 5.640625 
Q 37.84375 -0.78125 27.390625 -0.78125 
Q 17.28125 -0.78125 10.5 5.734375 
Q 3.71875 12.25 3.71875 22.015625 
Q 3.71875 31.890625 10.578125 38.453125 
Q 17.4375 45.015625 27.78125 45.015625 
z
M 27.296875 37.015625 
Q 20.90625 37.015625 16.796875 32.8125 
Q 12.703125 28.609375 12.703125 22.125 
Q 12.703125 15.671875 16.890625 11.59375 
Q 21.09375 7.515625 27.6875 7.515625 
Q 34.234375 7.515625 38.40625 11.640625 
Q 42.578125 15.765625 42.578125 22.21875 
Q 42.578125 28.609375 38.234375 32.8125 
Q 33.890625 37.015625 27.296875 37.015625 
z
" id="GillSans-111"/>
     </defs>
     <g transform="translate(372.420823 39.474646)scale(0.11 -0.11)">
      <use xlink:href="#GillSans-68"/>
      <use x="75" xlink:href="#GillSans-76"/>
      <use x="124.023438" xlink:href="#GillSans-65"/>
      <use x="190.722656" xlink:href="#GillSans-45"/>
      <use x="223.046875" xlink:href="#GillSans-83"/>
      <use x="268.847656" xlink:href="#GillSans-99"/>
      <use x="312.646484" xlink:href="#GillSans-111"/>
     </g>
    </g>
    <g id="line2d_25">
     <path d="M 341.620823 51.344333 
L 363.620823 51.344333 
" style="fill:none;stroke:#e36f47;stroke-linejoin:miter;stroke-width:1.375;"/>
    </g>
    <g id="line2d_26"/>
    <g id="text_11">
     <!-- DLA-Wal -->
     <defs>
      <path d="M 94.390625 68.21875 
L 104.109375 68.21875 
L 76.515625 -0.296875 
L 74.421875 -0.296875 
L 52.09375 55.171875 
L 29.59375 -0.296875 
L 27.484375 -0.296875 
L 0 68.21875 
L 9.8125 68.21875 
L 28.609375 21.1875 
L 47.515625 68.21875 
L 56.78125 68.21875 
L 75.78125 21.1875 
z
" id="GillSans-87"/>
      <path d="M 6.5 68.21875 
L 15.375 68.21875 
L 15.375 0 
L 6.5 0 
z
" id="GillSans-108"/>
     </defs>
     <g transform="translate(372.420823 55.194333)scale(0.11 -0.11)">
      <use xlink:href="#GillSans-68"/>
      <use x="75" xlink:href="#GillSans-76"/>
      <use x="124.023438" xlink:href="#GillSans-65"/>
      <use x="190.722656" xlink:href="#GillSans-45"/>
      <use x="223.046875" xlink:href="#GillSans-87"/>
      <use x="321.246094" xlink:href="#GillSans-97"/>
      <use x="363.921875" xlink:href="#GillSans-108"/>
     </g>
    </g>
    <g id="line2d_27">
     <path d="M 341.620823 67.064021 
L 363.620823 67.064021 
" style="fill:none;stroke:#3ea44e;stroke-linejoin:miter;stroke-width:1.375;"/>
    </g>
    <g id="line2d_28"/>
    <g id="text_12">
     <!-- DLA-Eng -->
     <defs>
      <path d="M 7.515625 68.21875 
L 46.1875 68.21875 
L 46.1875 59.515625 
L 17.28125 59.515625 
L 17.28125 38.71875 
L 45.21875 38.71875 
L 45.21875 29.984375 
L 17.28125 29.984375 
L 17.28125 8.796875 
L 47.125 8.796875 
L 47.125 0.09375 
L 7.515625 0.09375 
z
" id="GillSans-69"/>
      <path d="M 15.1875 44.921875 
L 15.1875 39.203125 
Q 21.140625 45.796875 28.71875 45.796875 
Q 32.90625 45.796875 36.515625 43.625 
Q 40.140625 41.453125 42.015625 37.671875 
Q 43.890625 33.890625 43.890625 25.6875 
L 43.890625 0 
L 35.015625 0 
L 35.015625 25.59375 
Q 35.015625 32.46875 32.90625 35.421875 
Q 30.8125 38.375 25.875 38.375 
Q 19.578125 38.375 15.1875 32.078125 
L 15.1875 0 
L 6.109375 0 
L 6.109375 44.921875 
z
" id="GillSans-110"/>
      <path d="M 4 29.390625 
Q 4 36.578125 9.25 40.75 
Q 14.5 44.921875 23.578125 44.921875 
L 42.09375 44.921875 
L 42.09375 37.984375 
L 33.015625 37.984375 
Q 35.640625 35.296875 36.671875 33.09375 
Q 37.703125 30.90625 37.703125 28.078125 
Q 37.703125 24.5625 35.6875 21.171875 
Q 33.6875 17.78125 30.53125 15.96875 
Q 27.390625 14.15625 20.21875 13.09375 
Q 15.1875 12.359375 15.1875 9.625 
Q 15.1875 8.0625 17.0625 7.0625 
Q 18.953125 6.0625 23.875 4.984375 
Q 32.125 3.171875 34.484375 2.140625 
Q 36.859375 1.125 38.765625 -0.78125 
Q 42 -4 42 -8.890625 
Q 42 -15.28125 36.296875 -19.09375 
Q 30.609375 -22.90625 21.09375 -22.90625 
Q 11.46875 -22.90625 5.734375 -19.0625 
Q 0 -15.234375 0 -8.796875 
Q 0 0.34375 11.28125 2.984375 
Q 6.78125 5.859375 6.78125 8.6875 
Q 6.78125 10.84375 8.703125 12.59375 
Q 10.640625 14.359375 13.921875 15.1875 
Q 4 19.578125 4 29.390625 
z
M 20.703125 37.203125 
Q 17.09375 37.203125 14.546875 34.765625 
Q 12.015625 32.328125 12.015625 28.90625 
Q 12.015625 25.4375 14.5 23.171875 
Q 17 20.90625 20.796875 20.90625 
Q 24.5625 20.90625 27.078125 23.21875 
Q 29.59375 25.53125 29.59375 29 
Q 29.59375 32.515625 27.046875 34.859375 
Q 24.515625 37.203125 20.703125 37.203125 
z
M 18.609375 -2.09375 
Q 14.109375 -2.09375 11.25 -4 
Q 8.40625 -5.90625 8.40625 -8.890625 
Q 8.40625 -15.828125 20.90625 -15.828125 
Q 26.8125 -15.828125 30.046875 -14.09375 
Q 33.296875 -12.359375 33.296875 -9.1875 
Q 33.296875 -6.0625 29.1875 -4.078125 
Q 25.09375 -2.09375 18.609375 -2.09375 
z
" id="GillSans-103"/>
     </defs>
     <g transform="translate(372.420823 70.914021)scale(0.11 -0.11)">
      <use xlink:href="#GillSans-68"/>
      <use x="75" xlink:href="#GillSans-76"/>
      <use x="124.023438" xlink:href="#GillSans-65"/>
      <use x="190.722656" xlink:href="#GillSans-45"/>
      <use x="223.046875" xlink:href="#GillSans-69"/>
      <use x="273.046875" xlink:href="#GillSans-110"/>
      <use x="323.046875" xlink:href="#GillSans-103"/>
     </g>
    </g>
    <g id="line2d_29">
     <path d="M 341.620823 82.783708 
L 363.620823 82.783708 
" style="fill:none;stroke:#c371d2;stroke-linejoin:miter;stroke-width:1.375;"/>
    </g>
    <g id="line2d_30"/>
    <g id="text_13">
     <!-- PIP-Sco -->
     <g transform="translate(372.420823 86.633708)scale(0.11 -0.11)">
      <use xlink:href="#GillSans-80"/>
      <use x="50.976562" xlink:href="#GillSans-73"/>
      <use x="75.976562" xlink:href="#GillSans-80"/>
      <use x="126.953125" xlink:href="#GillSans-45"/>
      <use x="159.277344" xlink:href="#GillSans-83"/>
      <use x="205.078125" xlink:href="#GillSans-99"/>
      <use x="248.876953" xlink:href="#GillSans-111"/>
     </g>
    </g>
    <g id="line2d_31">
     <path d="M 341.620823 98.503396 
L 363.620823 98.503396 
" style="fill:none;stroke:#ac8e18;stroke-linejoin:miter;stroke-width:1.375;"/>
    </g>
    <g id="line2d_32"/>
    <g id="text_14">
     <!-- PIP-Wal -->
     <g transform="translate(372.420823 102.353396)scale(0.11 -0.11)">
      <use xlink:href="#GillSans-80"/>
      <use x="50.976562" xlink:href="#GillSans-73"/>
      <use x="75.976562" xlink:href="#GillSans-80"/>
      <use x="126.953125" xlink:href="#GillSans-45"/>
      <use x="159.277344" xlink:href="#GillSans-87"/>
      <use x="257.476562" xlink:href="#GillSans-97"/>
      <use x="300.152344" xlink:href="#GillSans-108"/>
     </g>
    </g>
    <g id="line2d_33">
     <path d="M 341.620823 114.223083 
L 363.620823 114.223083 
" style="fill:none;stroke:#00aaae;stroke-linejoin:miter;stroke-width:1.375;"/>
    </g>
    <g id="line2d_34"/>
    <g id="text_15">
     <!-- PIP-Eng -->
     <g transform="translate(372.420823 118.073083)scale(0.11 -0.11)">
      <use xlink:href="#GillSans-80"/>
      <use x="50.976562" xlink:href="#GillSans-73"/>
      <use x="75.976562" xlink:href="#GillSans-80"/>
      <use x="126.953125" xlink:href="#GillSans-45"/>
      <use x="159.277344" xlink:href="#GillSans-69"/>
      <use x="209.277344" xlink:href="#GillSans-110"/>
      <use x="259.277344" xlink:href="#GillSans-103"/>
     </g>
    </g>
   </g>
  </g>
 </g>
 <defs>
  <clipPath id="pd51cc7d5b0">
   <rect height="254.830709" width="390.160709" x="39.004646" y="17.474646"/>
  </clipPath>
 </defs>
</svg>
